<svg width="44" height="24" viewBox="0 0 44 24" fill="none" xmlns="http://www.w3.org/2000/svg">
<path d="M43.5181 21.1998C43.4651 21.0954 43.4157 21.0089 43.3698 20.9395C42.6108 19.6896 41.1602 18.1554 39.0191 16.3365L38.9738 16.2949L38.9512 16.2744L38.9283 16.2535H38.9053C37.9335 15.4065 37.3182 14.8371 37.0605 14.5455C36.5889 13.9901 36.4833 13.4279 36.741 12.8583C36.9231 12.4279 37.607 11.519 38.7911 10.1303C39.414 9.3944 39.9073 8.80457 40.2716 8.36019C42.899 5.16665 44.038 3.12594 43.6886 2.23725L43.5529 2.02958C43.4617 1.90455 43.2263 1.79017 42.8471 1.68586C42.467 1.58177 41.9812 1.56455 41.3888 1.63393L34.8287 1.67536C34.7224 1.64093 34.5707 1.64414 34.373 1.68586C34.1755 1.72759 34.0767 1.74852 34.0767 1.74852L33.9625 1.80068L33.8719 1.86334C33.796 1.90477 33.7124 1.97764 33.6212 2.08181C33.5305 2.18561 33.4546 2.30743 33.394 2.44624C32.6798 4.12624 31.8677 5.68821 30.9564 7.13209C30.3945 7.99306 29.8784 8.73921 29.4071 9.37099C28.9365 10.0025 28.5416 10.4679 28.223 10.7661C27.9039 11.0647 27.6158 11.3039 27.3572 11.4846C27.0989 11.6653 26.9018 11.7417 26.7653 11.7138C26.6284 11.6858 26.4996 11.6581 26.3776 11.6304C26.1651 11.5054 25.9942 11.3353 25.8654 11.1201C25.736 10.9049 25.6488 10.6341 25.6033 10.3078C25.558 9.98132 25.5312 9.70048 25.5235 9.46436C25.5164 9.22853 25.5197 8.89495 25.5351 8.46457C25.5509 8.03398 25.558 7.74264 25.558 7.58989C25.558 7.0622 25.5692 6.48951 25.5918 5.87167C25.6148 5.25382 25.6334 4.76429 25.6489 4.40365C25.6644 4.04264 25.6716 3.6607 25.6716 3.25805C25.6716 2.85539 25.6448 2.53961 25.5918 2.31042C25.5395 2.08152 25.4591 1.85933 25.3533 1.64392C25.2467 1.42873 25.0908 1.26227 24.8863 1.1441C24.6813 1.02607 24.4265 0.932412 24.1232 0.862823C23.3183 0.696289 22.2933 0.606202 21.0478 0.592197C18.2234 0.564478 16.4085 0.73123 15.6037 1.09223C15.2848 1.24476 14.9962 1.45317 14.7382 1.71679C14.4648 2.02236 14.4266 2.18911 14.624 2.21654C15.5353 2.34135 16.1804 2.63991 16.5601 3.11194L16.697 3.36207C16.8034 3.54253 16.9097 3.86203 17.016 4.32013C17.1222 4.77822 17.1907 5.28497 17.2209 5.84008C17.2967 6.8538 17.2967 7.72155 17.2209 8.44342C17.1449 9.16558 17.0731 9.72776 17.0045 10.1304C16.936 10.5331 16.8336 10.8594 16.697 11.1092C16.5601 11.3591 16.4691 11.5119 16.4235 11.5673C16.3779 11.6227 16.3399 11.6577 16.3098 11.6714C16.1124 11.7405 15.9071 11.7758 15.6946 11.7758C15.4819 11.7758 15.2238 11.6785 14.9202 11.484C14.6166 11.2895 14.3015 11.0224 13.975 10.6822C13.6484 10.3419 13.2801 9.86636 12.87 9.25552C12.4601 8.64467 12.0349 7.92274 11.5945 7.0897L11.2301 6.48557C11.0023 6.09692 10.6912 5.53101 10.2963 4.78836C9.90123 4.04541 9.55202 3.32676 9.24844 2.63254C9.12709 2.34098 8.94479 2.11901 8.70184 1.96626L8.58783 1.9036C8.51204 1.84816 8.39037 1.7893 8.22346 1.72656C8.05631 1.66391 7.88191 1.61897 7.69952 1.59132L1.45813 1.63276C0.820335 1.63276 0.387589 1.76486 0.159727 2.0287L0.0685342 2.15351C0.0229777 2.22303 0 2.33405 0 2.48687C0 2.63962 0.0455565 2.82709 0.136749 3.04906C1.04788 5.0069 2.03871 6.89509 3.10925 8.7139C4.17979 10.5327 5.11006 11.9978 5.89952 13.1079C6.68914 14.2188 7.494 15.2672 8.3141 16.2527C9.13419 17.2385 9.67704 17.8703 9.94264 18.1479C10.2086 18.4259 10.4174 18.6338 10.5693 18.7727L11.1388 19.2724C11.5033 19.6057 12.0385 20.0048 12.7446 20.4699C13.451 20.9352 14.2329 21.3933 15.0909 21.8449C15.9491 22.2958 16.9474 22.6637 18.0865 22.9482C19.2254 23.2331 20.3339 23.3474 21.4122 23.2923H24.0318C24.5631 23.2503 24.9656 23.0976 25.2392 22.8339L25.3298 22.7296C25.3907 22.6467 25.4478 22.5179 25.5005 22.3447C25.5537 22.1712 25.5802 21.98 25.5802 21.772C25.5647 21.1751 25.6144 20.6371 25.728 20.1582C25.8415 19.6794 25.9709 19.3184 26.1157 19.0752C26.2603 18.8323 26.4235 18.6273 26.6052 18.4612C26.7873 18.2946 26.917 18.1938 26.9931 18.159C27.0688 18.1241 27.1292 18.1004 27.1747 18.0862C27.5392 17.9751 27.9681 18.0827 28.4621 18.4092C28.9557 18.7355 29.4187 19.1384 29.8518 19.6172C30.2846 20.0965 30.8046 20.6341 31.4119 21.2311C32.0197 21.8282 32.551 22.272 33.0064 22.564L33.4618 22.814C33.766 22.9807 34.1608 23.1335 34.6469 23.2723C35.132 23.411 35.5571 23.4457 35.9221 23.3764L41.7533 23.2932C42.33 23.2932 42.7788 23.2059 43.0971 23.0326C43.4161 22.8591 43.6056 22.6679 43.6667 22.46C43.7277 22.2518 43.7309 22.0156 43.6783 21.7515C43.6243 21.4881 43.571 21.3039 43.5181 21.1998Z" fill="white"/>
</svg>
